<svg xmlns="http://www.w3.org/2000/svg" xmlns:xlink="http://www.w3.org/1999/xlink" width="500" zoomAndPan="magnify" viewBox="0 0 375 307.499996" height="410" preserveAspectRatio="xMidYMid meet" version="1.0"><defs><g/><clipPath id="bc1fcfd236"><path d="M 367.941406 0.867188 L 374.695312 0.867188 L 374.695312 252.113281 L 367.941406 252.113281 Z M 367.941406 0.867188 " clip-rule="nonzero"/></clipPath><clipPath id="6d7a93cc93"><path d="M 7.203125 164.722656 L 367.941406 164.722656 L 367.941406 245.605469 L 7.203125 245.605469 Z M 7.203125 164.722656 " clip-rule="nonzero"/></clipPath><clipPath id="fef30c2fb8"><path d="M 7.058594 4.820312 L 367.941406 4.820312 L 367.941406 85.703125 L 7.058594 85.703125 Z M 7.058594 4.820312 " clip-rule="nonzero"/></clipPath><clipPath id="b06f08b0e8"><path d="M 3.679688 83.839844 L 371.320312 83.839844 L 371.320312 164.722656 L 3.679688 164.722656 Z M 3.679688 83.839844 " clip-rule="nonzero"/></clipPath><clipPath id="e663260302"><path d="M 0.304688 1.335938 L 7.058594 1.335938 L 7.058594 252.113281 L 0.304688 252.113281 Z M 0.304688 1.335938 " clip-rule="nonzero"/></clipPath><clipPath id="dd00bf0bd9"><path d="M 0.304688 0 L 374.695312 0 L 374.695312 6.746094 L 0.304688 6.746094 Z M 0.304688 0 " clip-rule="nonzero"/></clipPath><clipPath id="1a4bb0d526"><path d="M 0.304688 245.355469 L 374.695312 245.355469 L 374.695312 252.109375 L 0.304688 252.109375 Z M 0.304688 245.355469 " clip-rule="nonzero"/></clipPath></defs><g clip-path="url(#bc1fcfd236)"><path fill="#000000" d="M 367.941406 0.867188 L 378.289062 0.867188 L 378.289062 252.113281 L 367.941406 252.113281 Z M 367.941406 0.867188 " fill-opacity="1" fill-rule="nonzero"/></g><g clip-path="url(#6d7a93cc93)"><path fill="#faf6f5" d="M 7.203125 164.722656 L 367.941406 164.722656 L 367.941406 245.605469 L 7.203125 245.605469 Z M 7.203125 164.722656 " fill-opacity="1" fill-rule="nonzero"/></g><g clip-path="url(#fef30c2fb8)"><path fill="#faf6f5" d="M 7.058594 4.820312 L 367.941406 4.820312 L 367.941406 85.703125 L 7.058594 85.703125 Z M 7.058594 4.820312 " fill-opacity="1" fill-rule="nonzero"/></g><g clip-path="url(#b06f08b0e8)"><path fill="#000000" d="M 3.679688 83.839844 L 371.320312 83.839844 L 371.320312 164.722656 L 3.679688 164.722656 Z M 3.679688 83.839844 " fill-opacity="1" fill-rule="nonzero"/></g><g clip-path="url(#e663260302)"><path fill="#000000" d="M -2.691406 1.335938 L 7.058594 1.335938 L 7.058594 252.113281 L -2.691406 252.113281 Z M -2.691406 1.335938 " fill-opacity="1" fill-rule="nonzero"/></g><g clip-path="url(#dd00bf0bd9)"><path fill="#000000" d="M -2.695312 6.746094 L -2.695312 -4.796875 L 378.285156 -4.796875 L 378.285156 6.746094 Z M -2.695312 6.746094 " fill-opacity="1" fill-rule="nonzero"/></g><g clip-path="url(#1a4bb0d526)"><path fill="#000000" d="M -1.269531 252.109375 L -1.269531 245.355469 L 376.953125 245.355469 L 376.953125 252.109375 Z M -1.269531 252.109375 " fill-opacity="1" fill-rule="nonzero"/></g><g fill="#000000" fill-opacity="1"><g transform="translate(15.252385, 225.638788)"><g><path d="M 12.265625 0 L 4.953125 0 L 4.953125 -38.171875 L 13.609375 -38.171875 L 28.921875 -13.578125 L 29.609375 -13.6875 L 29.609375 -38.171875 L 36.859375 -38.171875 L 36.859375 0 L 29.140625 0 L 12.921875 -26.265625 L 12.265625 -26.15625 Z M 12.265625 0 "/></g></g></g><g fill="#000000" fill-opacity="1"><g transform="translate(57.102566, 225.638788)"><g/></g></g><g fill="#000000" fill-opacity="1"><g transform="translate(69.712451, 225.638788)"><g><path d="M 12.5 -16.765625 L 12.5 -6.3125 L 30.734375 -6.3125 L 30.734375 0 L 4.953125 0 L 4.953125 -38.171875 L 30.3125 -38.171875 L 30.3125 -31.84375 L 12.5 -31.84375 L 12.5 -22.921875 L 28.0625 -22.921875 L 28.0625 -16.765625 Z M 12.5 -16.765625 "/></g></g></g><g fill="#000000" fill-opacity="1"><g transform="translate(102.529468, 225.638788)"><g/></g></g><g fill="#000000" fill-opacity="1"><g transform="translate(115.139353, 225.638788)"><g><path d="M 30.59375 -38.171875 L 30.59375 -31.828125 L 19.578125 -31.828125 L 19.578125 0 L 12.0625 0 L 12.0625 -31.828125 L 1.046875 -31.828125 L 1.046875 -38.171875 Z M 30.59375 -38.171875 "/></g></g></g><g fill="#000000" fill-opacity="1"><g transform="translate(146.781531, 225.638788)"><g/></g></g><g fill="#000000" fill-opacity="1"><g transform="translate(159.391415, 225.638788)"><g><path d="M 18.21875 0 L 9.796875 0 L 1.046875 -38.171875 L 8.5625 -38.171875 L 14.328125 -11.328125 L 14.984375 -11.328125 L 21.828125 -38.171875 L 28.28125 -38.171875 L 35.25 -11.328125 L 35.890625 -11.328125 L 41.6875 -38.171875 L 48.953125 -38.171875 L 40.234375 0 L 31.765625 0 L 25.09375 -24.625 L 24.546875 -24.625 Z M 18.21875 0 "/></g></g></g><g fill="#000000" fill-opacity="1"><g transform="translate(209.360994, 225.638788)"><g/></g></g><g fill="#000000" fill-opacity="1"><g transform="translate(221.970878, 225.638788)"><g><path d="M 20.8125 0.546875 C 17.3125 0.546875 14.222656 -0.164062 11.546875 -1.59375 C 8.878906 -3.019531 6.785156 -5.195312 5.265625 -8.125 C 3.753906 -11.0625 3 -14.710938 3 -19.078125 C 3 -23.453125 3.753906 -27.101562 5.265625 -30.03125 C 6.785156 -32.96875 8.878906 -35.148438 11.546875 -36.578125 C 14.222656 -38.003906 17.3125 -38.71875 20.8125 -38.71875 C 24.3125 -38.71875 27.390625 -38.007812 30.046875 -36.59375 C 32.710938 -35.175781 34.796875 -32.992188 36.296875 -30.046875 C 37.804688 -27.109375 38.5625 -23.453125 38.5625 -19.078125 C 38.5625 -14.710938 37.804688 -11.054688 36.296875 -8.109375 C 34.796875 -5.171875 32.710938 -2.992188 30.046875 -1.578125 C 27.390625 -0.160156 24.3125 0.546875 20.8125 0.546875 Z M 20.8125 -6 C 24.039062 -6 26.507812 -7.039062 28.21875 -9.125 C 29.925781 -11.207031 30.78125 -14.523438 30.78125 -19.078125 C 30.78125 -23.640625 29.925781 -26.960938 28.21875 -29.046875 C 26.507812 -31.140625 24.039062 -32.1875 20.8125 -32.1875 C 17.550781 -32.1875 15.0625 -31.140625 13.34375 -29.046875 C 11.632812 -26.960938 10.78125 -23.640625 10.78125 -19.078125 C 10.78125 -14.523438 11.632812 -11.207031 13.34375 -9.125 C 15.0625 -7.039062 17.550781 -6 20.8125 -6 Z M 20.8125 -6 "/></g></g></g><g fill="#000000" fill-opacity="1"><g transform="translate(263.559986, 225.638788)"><g/></g></g><g fill="#000000" fill-opacity="1"><g transform="translate(276.169883, 225.638788)"><g><path d="M 4.953125 0 L 4.953125 -38.171875 L 20.28125 -38.171875 C 24.238281 -38.171875 27.222656 -37.257812 29.234375 -35.4375 C 31.242188 -33.625 32.25 -31.113281 32.25 -27.90625 C 32.25 -25.59375 31.660156 -23.695312 30.484375 -22.21875 C 29.304688 -20.738281 27.550781 -19.609375 25.21875 -18.828125 L 25.21875 -18.28125 C 26.414062 -17.757812 27.382812 -16.984375 28.125 -15.953125 C 28.863281 -14.921875 29.566406 -13.398438 30.234375 -11.390625 L 34.046875 0 L 26.296875 0 L 22.5625 -11.40625 C 22.175781 -12.550781 21.742188 -13.441406 21.265625 -14.078125 C 20.785156 -14.710938 20.175781 -15.175781 19.4375 -15.46875 C 18.695312 -15.757812 17.734375 -15.90625 16.546875 -15.90625 L 12.5 -15.90625 L 12.5 0 Z M 19.375 -21.875 C 23.03125 -21.875 24.859375 -23.582031 24.859375 -27 C 24.859375 -30.457031 23.03125 -32.1875 19.375 -32.1875 L 12.5 -32.1875 L 12.5 -21.875 Z M 19.375 -21.875 "/></g></g></g><g fill="#000000" fill-opacity="1"><g transform="translate(311.858703, 225.638788)"><g/></g></g><g fill="#000000" fill-opacity="1"><g transform="translate(324.4686, 225.638788)"><g><path d="M 4.953125 0 L 4.953125 -38.171875 L 12.5 -38.171875 L 12.5 -22.578125 L 13.34375 -22.578125 L 26.078125 -38.171875 L 33.8125 -38.171875 L 33.8125 -37.515625 L 19.765625 -20.15625 L 35.265625 -0.65625 L 35.265625 0 L 26.734375 0 L 13.34375 -16.46875 L 12.5 -16.46875 L 12.5 0 Z M 4.953125 0 "/></g></g></g><g fill="#000000" fill-opacity="1"><g transform="translate(25.408754, 64.116559)"><g><path d="M 16.921875 0.546875 C 14.273438 0.546875 11.921875 0.222656 9.859375 -0.421875 C 7.796875 -1.078125 6.078125 -1.9375 4.703125 -3 C 3.328125 -4.0625 2.273438 -5.226562 1.546875 -6.5 L 5.6875 -11.5625 L 6.34375 -11.5625 C 7.488281 -9.863281 8.945312 -8.507812 10.71875 -7.5 C 12.488281 -6.488281 14.554688 -5.984375 16.921875 -5.984375 C 18.941406 -5.984375 20.460938 -6.410156 21.484375 -7.265625 C 22.515625 -8.117188 23.03125 -9.289062 23.03125 -10.78125 C 23.03125 -11.6875 22.863281 -12.441406 22.53125 -13.046875 C 22.207031 -13.660156 21.660156 -14.1875 20.890625 -14.625 C 20.128906 -15.0625 19.09375 -15.4375 17.78125 -15.75 L 12.875 -16.875 C 9.445312 -17.65625 6.890625 -18.953125 5.203125 -20.765625 C 3.523438 -22.585938 2.6875 -24.953125 2.6875 -27.859375 C 2.6875 -30.023438 3.222656 -31.925781 4.296875 -33.5625 C 5.378906 -35.195312 6.953125 -36.46875 9.015625 -37.375 C 11.085938 -38.28125 13.554688 -38.734375 16.421875 -38.734375 C 19.367188 -38.734375 21.890625 -38.34375 23.984375 -37.5625 C 26.085938 -36.789062 27.859375 -35.601562 29.296875 -34 L 25.5625 -28.890625 L 24.921875 -28.890625 C 23.835938 -30.015625 22.597656 -30.859375 21.203125 -31.421875 C 19.804688 -31.992188 18.210938 -32.28125 16.421875 -32.28125 C 14.347656 -32.28125 12.769531 -31.910156 11.6875 -31.171875 C 10.613281 -30.441406 10.078125 -29.4375 10.078125 -28.15625 C 10.078125 -26.945312 10.457031 -25.984375 11.21875 -25.265625 C 11.976562 -24.554688 13.285156 -24.003906 15.140625 -23.609375 L 20.15625 -22.5625 C 23.863281 -21.78125 26.550781 -20.453125 28.21875 -18.578125 C 29.894531 -16.710938 30.734375 -14.269531 30.734375 -11.25 C 30.734375 -8.863281 30.21875 -6.785156 29.1875 -5.015625 C 28.164062 -3.253906 26.617188 -1.882812 24.546875 -0.90625 C 22.472656 0.0625 19.929688 0.546875 16.921875 0.546875 Z M 16.921875 0.546875 "/></g></g></g><g fill="#000000" fill-opacity="1"><g transform="translate(58.203085, 64.116559)"><g/></g></g><g fill="#000000" fill-opacity="1"><g transform="translate(70.812909, 64.116559)"><g/></g></g><g fill="#000000" fill-opacity="1"><g transform="translate(83.427693, 64.116559)"><g><path d="M 12.515625 0 L 4.96875 0 L 4.96875 -38.1875 L 12.515625 -38.1875 Z M 12.515625 0 "/></g></g></g><g fill="#000000" fill-opacity="1"><g transform="translate(100.930482, 64.116559)"><g/></g></g><g fill="#000000" fill-opacity="1"><g transform="translate(113.540307, 64.116559)"><g/></g></g><g fill="#000000" fill-opacity="1"><g transform="translate(126.15509, 64.116559)"><g><path d="M 11.875 0 L 4.96875 0 L 4.96875 -38.1875 L 14.828125 -38.1875 L 24.5 -10.109375 L 25.046875 -10.109375 L 34.65625 -38.1875 L 44.296875 -38.1875 L 44.296875 0 L 37.140625 0 L 37.140625 -25.234375 L 36.484375 -25.328125 L 27.65625 0 L 21.359375 0 L 12.53125 -25.328125 L 11.875 -25.234375 Z M 11.875 0 "/></g></g></g><g fill="#000000" fill-opacity="1"><g transform="translate(175.422633, 64.116559)"><g/></g></g><g fill="#000000" fill-opacity="1"><g transform="translate(188.032458, 64.116559)"><g/></g></g><g fill="#000000" fill-opacity="1"><g transform="translate(200.647241, 64.116559)"><g><path d="M 19.71875 -38.1875 C 22.445312 -38.1875 24.78125 -37.679688 26.71875 -36.671875 C 28.664062 -35.671875 30.132812 -34.269531 31.125 -32.46875 C 32.125 -30.664062 32.625 -28.570312 32.625 -26.1875 C 32.625 -23.800781 32.125 -21.710938 31.125 -19.921875 C 30.132812 -18.128906 28.664062 -16.734375 26.71875 -15.734375 C 24.78125 -14.734375 22.445312 -14.234375 19.71875 -14.234375 L 12.515625 -14.234375 L 12.515625 0 L 4.96875 0 L 4.96875 -38.1875 Z M 18.71875 -20.21875 C 22.914062 -20.21875 25.015625 -22.207031 25.015625 -26.1875 C 25.015625 -30.195312 22.914062 -32.203125 18.71875 -32.203125 L 12.515625 -32.203125 L 12.515625 -20.21875 Z M 18.71875 -20.21875 "/></g></g></g><g fill="#000000" fill-opacity="1"><g transform="translate(235.535823, 64.116559)"><g/></g></g><g fill="#000000" fill-opacity="1"><g transform="translate(248.145647, 64.116559)"><g/></g></g><g fill="#000000" fill-opacity="1"><g transform="translate(260.760431, 64.116559)"><g><path d="M 12.515625 -38.1875 L 12.515625 -6.3125 L 29.671875 -6.3125 L 29.671875 0 L 4.96875 0 L 4.96875 -38.1875 Z M 12.515625 -38.1875 "/></g></g></g><g fill="#000000" fill-opacity="1"><g transform="translate(291.682809, 64.116559)"><g/></g></g><g fill="#000000" fill-opacity="1"><g transform="translate(304.292633, 64.116559)"><g/></g></g><g fill="#000000" fill-opacity="1"><g transform="translate(316.907417, 64.116559)"><g><path d="M 12.515625 -16.765625 L 12.515625 -6.3125 L 30.734375 -6.3125 L 30.734375 0 L 4.96875 0 L 4.96875 -38.1875 L 30.3125 -38.1875 L 30.3125 -31.859375 L 12.515625 -31.859375 L 12.515625 -22.921875 L 28.078125 -22.921875 L 28.078125 -16.765625 Z M 12.515625 -16.765625 "/></g></g></g><g fill="#faf6f5" fill-opacity="1"><g transform="translate(13.738557, 142.056925)"><g><path d="M 27.53125 -36.046875 L 27.53125 -30.078125 L 11.8125 -30.078125 L 11.8125 -20.53125 L 26.078125 -20.53125 L 26.078125 -14.640625 L 11.8125 -14.640625 L 11.8125 0 L 4.6875 0 L 4.6875 -36.046875 Z M 27.53125 -36.046875 "/></g></g></g><g fill="#faf6f5" fill-opacity="1"><g transform="translate(42.868749, 142.056925)"><g/></g></g><g fill="#faf6f5" fill-opacity="1"><g transform="translate(54.772202, 142.056925)"><g><path d="M 11.8125 -36.046875 L 11.8125 -5.96875 L 28 -5.96875 L 28 0 L 4.6875 0 L 4.6875 -36.046875 Z M 11.8125 -36.046875 "/></g></g></g><g fill="#faf6f5" fill-opacity="1"><g transform="translate(83.951683, 142.056925)"><g/></g></g><g fill="#faf6f5" fill-opacity="1"><g transform="translate(95.855137, 142.056925)"><g><path d="M 19.640625 0.515625 C 16.335938 0.515625 13.425781 -0.15625 10.90625 -1.5 C 8.382812 -2.851562 6.40625 -4.910156 4.96875 -7.671875 C 3.539062 -10.441406 2.828125 -13.890625 2.828125 -18.015625 C 2.828125 -22.140625 3.539062 -25.585938 4.96875 -28.359375 C 6.40625 -31.128906 8.382812 -33.1875 10.90625 -34.53125 C 13.425781 -35.882812 16.335938 -36.5625 19.640625 -36.5625 C 22.941406 -36.5625 25.847656 -35.890625 28.359375 -34.546875 C 30.878906 -33.203125 32.847656 -31.140625 34.265625 -28.359375 C 35.691406 -25.585938 36.40625 -22.140625 36.40625 -18.015625 C 36.40625 -13.890625 35.691406 -10.4375 34.265625 -7.65625 C 32.847656 -4.882812 30.878906 -2.828125 28.359375 -1.484375 C 25.847656 -0.148438 22.941406 0.515625 19.640625 0.515625 Z M 19.640625 -5.671875 C 22.703125 -5.671875 25.035156 -6.648438 26.640625 -8.609375 C 28.253906 -10.578125 29.0625 -13.710938 29.0625 -18.015625 C 29.0625 -22.328125 28.253906 -25.46875 26.640625 -27.4375 C 25.035156 -29.40625 22.703125 -30.390625 19.640625 -30.390625 C 16.566406 -30.390625 14.222656 -29.40625 12.609375 -27.4375 C 10.992188 -25.46875 10.1875 -22.328125 10.1875 -18.015625 C 10.1875 -13.710938 10.992188 -10.578125 12.609375 -8.609375 C 14.222656 -6.648438 16.566406 -5.671875 19.640625 -5.671875 Z M 19.640625 -5.671875 "/></g></g></g><g fill="#faf6f5" fill-opacity="1"><g transform="translate(135.114353, 142.056925)"><g/></g></g><g fill="#faf6f5" fill-opacity="1"><g transform="translate(147.017807, 142.056925)"><g><path d="M 19.640625 0.515625 C 16.335938 0.515625 13.425781 -0.15625 10.90625 -1.5 C 8.382812 -2.851562 6.40625 -4.910156 4.96875 -7.671875 C 3.539062 -10.441406 2.828125 -13.890625 2.828125 -18.015625 C 2.828125 -22.140625 3.539062 -25.585938 4.96875 -28.359375 C 6.40625 -31.128906 8.382812 -33.1875 10.90625 -34.53125 C 13.425781 -35.882812 16.335938 -36.5625 19.640625 -36.5625 C 22.941406 -36.5625 25.847656 -35.890625 28.359375 -34.546875 C 30.878906 -33.203125 32.847656 -31.140625 34.265625 -28.359375 C 35.691406 -25.585938 36.40625 -22.140625 36.40625 -18.015625 C 36.40625 -13.890625 35.691406 -10.4375 34.265625 -7.65625 C 32.847656 -4.882812 30.878906 -2.828125 28.359375 -1.484375 C 25.847656 -0.148438 22.941406 0.515625 19.640625 0.515625 Z M 19.640625 -5.671875 C 22.703125 -5.671875 25.035156 -6.648438 26.640625 -8.609375 C 28.253906 -10.578125 29.0625 -13.710938 29.0625 -18.015625 C 29.0625 -22.328125 28.253906 -25.46875 26.640625 -27.4375 C 25.035156 -29.40625 22.703125 -30.390625 19.640625 -30.390625 C 16.566406 -30.390625 14.222656 -29.40625 12.609375 -27.4375 C 10.992188 -25.46875 10.1875 -22.328125 10.1875 -18.015625 C 10.1875 -13.710938 10.992188 -10.578125 12.609375 -8.609375 C 14.222656 -6.648438 16.566406 -5.671875 19.640625 -5.671875 Z M 19.640625 -5.671875 "/></g></g></g><g fill="#faf6f5" fill-opacity="1"><g transform="translate(186.277024, 142.056925)"><g/></g></g><g fill="#faf6f5" fill-opacity="1"><g transform="translate(198.180478, 142.056925)"><g><path d="M 4.6875 0 L 4.6875 -36.046875 L 19.15625 -36.046875 C 22.882812 -36.046875 25.695312 -35.1875 27.59375 -33.46875 C 29.488281 -31.75 30.4375 -29.375 30.4375 -26.34375 C 30.4375 -24.164062 29.878906 -22.375 28.765625 -20.96875 C 27.660156 -19.570312 26.007812 -18.503906 23.8125 -17.765625 L 23.8125 -17.25 C 24.945312 -16.757812 25.863281 -16.03125 26.5625 -15.0625 C 27.257812 -14.09375 27.921875 -12.65625 28.546875 -10.75 L 32.140625 0 L 24.828125 0 L 21.296875 -10.765625 C 20.929688 -11.859375 20.523438 -12.703125 20.078125 -13.296875 C 19.628906 -13.898438 19.054688 -14.335938 18.359375 -14.609375 C 17.660156 -14.878906 16.75 -15.015625 15.625 -15.015625 L 11.8125 -15.015625 L 11.8125 0 Z M 18.296875 -20.65625 C 21.742188 -20.65625 23.46875 -22.265625 23.46875 -25.484375 C 23.46875 -28.753906 21.742188 -30.390625 18.296875 -30.390625 L 11.8125 -30.390625 L 11.8125 -20.65625 Z M 18.296875 -20.65625 "/></g></g></g><g fill="#faf6f5" fill-opacity="1"><g transform="translate(231.869974, 142.056925)"><g/></g></g><g fill="#faf6f5" fill-opacity="1"><g transform="translate(243.77344, 142.056925)"><g><path d="M 11.8125 0 L 4.6875 0 L 4.6875 -36.046875 L 11.8125 -36.046875 Z M 11.8125 0 "/></g></g></g><g fill="#faf6f5" fill-opacity="1"><g transform="translate(260.285477, 142.056925)"><g/></g></g><g fill="#faf6f5" fill-opacity="1"><g transform="translate(272.188919, 142.056925)"><g><path d="M 11.578125 0 L 4.6875 0 L 4.6875 -36.046875 L 12.84375 -36.046875 L 27.3125 -12.8125 L 27.953125 -12.921875 L 27.953125 -36.046875 L 34.8125 -36.046875 L 34.8125 0 L 27.515625 0 L 12.203125 -24.796875 L 11.578125 -24.703125 Z M 11.578125 0 "/></g></g></g><g fill="#faf6f5" fill-opacity="1"><g transform="translate(311.694596, 142.056925)"><g/></g></g><g fill="#faf6f5" fill-opacity="1"><g transform="translate(323.598061, 142.056925)"><g><path d="M 17.5 0.515625 C 14.488281 0.515625 11.882812 -0.164062 9.6875 -1.53125 C 7.5 -2.90625 5.804688 -4.976562 4.609375 -7.75 C 3.421875 -10.519531 2.828125 -13.941406 2.828125 -18.015625 C 2.828125 -22.128906 3.539062 -25.566406 4.96875 -28.328125 C 6.40625 -31.097656 8.390625 -33.160156 10.921875 -34.515625 C 13.460938 -35.878906 16.410156 -36.5625 19.765625 -36.5625 C 23.222656 -36.5625 26.164062 -35.921875 28.59375 -34.640625 C 31.03125 -33.359375 32.738281 -31.453125 33.71875 -28.921875 L 28.515625 -25.765625 L 27.90625 -25.78125 C 27.164062 -27.394531 26.125 -28.570312 24.78125 -29.3125 C 23.445312 -30.050781 21.773438 -30.421875 19.765625 -30.421875 C 16.660156 -30.421875 14.285156 -29.4375 12.640625 -27.46875 C 11.003906 -25.507812 10.1875 -22.359375 10.1875 -18.015625 C 10.1875 -13.660156 10.953125 -10.5 12.484375 -8.53125 C 14.023438 -6.5625 16.296875 -5.578125 19.296875 -5.578125 C 21.898438 -5.578125 23.816406 -6.160156 25.046875 -7.328125 C 26.273438 -8.492188 26.890625 -10.234375 26.890625 -12.546875 L 26.890625 -14.09375 L 18.359375 -14.09375 L 18.359375 -19.890625 L 33.96875 -19.890625 L 33.96875 0 L 27.171875 0 L 27.171875 -4.828125 L 26.640625 -4.90625 C 25.898438 -3.175781 24.78125 -1.835938 23.28125 -0.890625 C 21.78125 0.046875 19.851562 0.515625 17.5 0.515625 Z M 17.5 0.515625 "/></g></g></g><g fill="#000000" fill-opacity="1"><g transform="translate(16.677728, 297.104164)"><g><path d="M 9.109375 0 L 4.890625 0 L 0.515625 -19.078125 L 4.28125 -19.078125 L 7.171875 -5.671875 L 7.5 -5.671875 L 10.90625 -19.078125 L 14.140625 -19.078125 L 17.625 -5.671875 L 17.953125 -5.671875 L 20.84375 -19.078125 L 24.46875 -19.078125 L 20.109375 0 L 15.890625 0 L 12.546875 -12.3125 L 12.265625 -12.3125 Z M 9.109375 0 "/></g></g><g transform="translate(41.668618, 297.104164)"><g><path d="M 2.078125 0 L 2.078125 -20.1875 L 5.6875 -20.1875 L 5.6875 -12.515625 L 5.96875 -12.46875 C 6.445312 -13.175781 7.03125 -13.71875 7.71875 -14.09375 C 8.414062 -14.476562 9.257812 -14.671875 10.25 -14.671875 C 13.425781 -14.671875 15.015625 -12.867188 15.015625 -9.265625 L 15.015625 0 L 11.390625 0 L 11.390625 -8.8125 C 11.390625 -9.789062 11.191406 -10.503906 10.796875 -10.953125 C 10.410156 -11.398438 9.804688 -11.625 8.984375 -11.625 C 7.972656 -11.625 7.171875 -11.285156 6.578125 -10.609375 C 5.984375 -9.929688 5.6875 -8.878906 5.6875 -7.453125 L 5.6875 0 Z M 2.078125 0 "/></g></g><g transform="translate(58.538123, 297.104164)"><g><path d="M 5.609375 0.28125 C 4.691406 0.28125 3.890625 0.109375 3.203125 -0.234375 C 2.523438 -0.578125 2.003906 -1.078125 1.640625 -1.734375 C 1.273438 -2.390625 1.09375 -3.175781 1.09375 -4.09375 C 1.09375 -4.945312 1.273438 -5.660156 1.640625 -6.234375 C 2.003906 -6.816406 2.566406 -7.289062 3.328125 -7.65625 C 4.097656 -8.03125 5.101562 -8.320312 6.34375 -8.53125 C 7.207031 -8.664062 7.863281 -8.816406 8.3125 -8.984375 C 8.757812 -9.148438 9.0625 -9.335938 9.21875 -9.546875 C 9.375 -9.753906 9.453125 -10.019531 9.453125 -10.34375 C 9.453125 -10.800781 9.289062 -11.148438 8.96875 -11.390625 C 8.644531 -11.640625 8.109375 -11.765625 7.359375 -11.765625 C 6.554688 -11.765625 5.796875 -11.582031 5.078125 -11.21875 C 4.359375 -10.863281 3.734375 -10.394531 3.203125 -9.8125 L 2.9375 -9.8125 L 1.421875 -12.09375 C 2.148438 -12.90625 3.039062 -13.535156 4.09375 -13.984375 C 5.144531 -14.441406 6.296875 -14.671875 7.546875 -14.671875 C 9.453125 -14.671875 10.832031 -14.265625 11.6875 -13.453125 C 12.539062 -12.648438 12.96875 -11.503906 12.96875 -10.015625 L 12.96875 -3.765625 C 12.96875 -3.117188 13.25 -2.796875 13.8125 -2.796875 C 14.03125 -2.796875 14.242188 -2.832031 14.453125 -2.90625 L 14.640625 -2.859375 L 14.890625 -0.34375 C 14.691406 -0.207031 14.414062 -0.0976562 14.0625 -0.015625 C 13.707031 0.0664062 13.316406 0.109375 12.890625 0.109375 C 12.023438 0.109375 11.347656 -0.0546875 10.859375 -0.390625 C 10.378906 -0.722656 10.035156 -1.238281 9.828125 -1.9375 L 9.5625 -1.96875 C 8.851562 -0.46875 7.535156 0.28125 5.609375 0.28125 Z M 6.765625 -2.421875 C 7.597656 -2.421875 8.265625 -2.703125 8.765625 -3.265625 C 9.265625 -3.828125 9.515625 -4.609375 9.515625 -5.609375 L 9.515625 -7.078125 L 9.265625 -7.125 C 9.046875 -6.945312 8.757812 -6.800781 8.40625 -6.6875 C 8.0625 -6.570312 7.554688 -6.457031 6.890625 -6.34375 C 6.109375 -6.207031 5.546875 -5.984375 5.203125 -5.671875 C 4.859375 -5.359375 4.6875 -4.910156 4.6875 -4.328125 C 4.6875 -3.703125 4.867188 -3.226562 5.234375 -2.90625 C 5.597656 -2.582031 6.109375 -2.421875 6.765625 -2.421875 Z M 6.765625 -2.421875 "/></g></g><g transform="translate(73.723288, 297.104164)"><g><path d="M 9.9375 -3.4375 L 10.875 -0.75 C 10.476562 -0.4375 9.984375 -0.1875 9.390625 0 C 8.804688 0.1875 8.140625 0.28125 7.390625 0.28125 C 5.828125 0.28125 4.640625 -0.140625 3.828125 -0.984375 C 3.023438 -1.835938 2.625 -3.078125 2.625 -4.703125 L 2.625 -11.546875 L 0.4375 -11.546875 L 0.4375 -14.40625 L 2.625 -14.40625 L 2.625 -17.21875 L 6.234375 -17.8125 L 6.234375 -14.40625 L 10.328125 -14.40625 L 10.328125 -11.546875 L 6.234375 -11.546875 L 6.234375 -4.953125 C 6.234375 -4.242188 6.378906 -3.722656 6.671875 -3.390625 C 6.972656 -3.066406 7.40625 -2.90625 7.96875 -2.90625 C 8.613281 -2.90625 9.175781 -3.082031 9.65625 -3.4375 Z M 9.9375 -3.4375 "/></g></g><g transform="translate(84.913044, 297.104164)"><g><path d="M 4.625 -11.125 L 2.125 -11.125 L 1.53125 -19.078125 L 5.203125 -19.078125 Z M 4.625 -11.125 "/></g></g><g transform="translate(91.663457, 297.104164)"><g><path d="M 6.734375 0.28125 C 5.753906 0.28125 4.851562 0.164062 4.03125 -0.0625 C 3.21875 -0.300781 2.519531 -0.617188 1.9375 -1.015625 C 1.363281 -1.421875 0.9375 -1.890625 0.65625 -2.421875 L 2.65625 -4.578125 L 2.9375 -4.578125 C 3.414062 -3.929688 3.976562 -3.445312 4.625 -3.125 C 5.28125 -2.8125 5.992188 -2.65625 6.765625 -2.65625 C 7.460938 -2.65625 7.988281 -2.78125 8.34375 -3.03125 C 8.707031 -3.28125 8.890625 -3.640625 8.890625 -4.109375 C 8.890625 -4.472656 8.757812 -4.78125 8.5 -5.03125 C 8.25 -5.28125 7.835938 -5.472656 7.265625 -5.609375 L 5.359375 -6.0625 C 3.929688 -6.40625 2.882812 -6.925781 2.21875 -7.625 C 1.5625 -8.332031 1.234375 -9.222656 1.234375 -10.296875 C 1.234375 -11.191406 1.460938 -11.96875 1.921875 -12.625 C 2.378906 -13.289062 3.023438 -13.796875 3.859375 -14.140625 C 4.691406 -14.492188 5.660156 -14.671875 6.765625 -14.671875 C 8.054688 -14.671875 9.128906 -14.484375 9.984375 -14.109375 C 10.835938 -13.734375 11.503906 -13.234375 11.984375 -12.609375 L 10.046875 -10.515625 L 9.796875 -10.515625 C 9.390625 -10.972656 8.9375 -11.304688 8.4375 -11.515625 C 7.9375 -11.722656 7.378906 -11.828125 6.765625 -11.828125 C 5.335938 -11.828125 4.625 -11.382812 4.625 -10.5 C 4.625 -10.125 4.753906 -9.816406 5.015625 -9.578125 C 5.285156 -9.347656 5.753906 -9.15625 6.421875 -9 L 8.203125 -8.609375 C 9.660156 -8.296875 10.726562 -7.789062 11.40625 -7.09375 C 12.082031 -6.40625 12.421875 -5.484375 12.421875 -4.328125 C 12.421875 -3.410156 12.191406 -2.601562 11.734375 -1.90625 C 11.285156 -1.207031 10.632812 -0.664062 9.78125 -0.28125 C 8.925781 0.09375 7.910156 0.28125 6.734375 0.28125 Z M 6.734375 0.28125 "/></g></g><g transform="translate(104.942316, 297.104164)"><g/></g><g transform="translate(111.248794, 297.104164)"><g><path d="M 3.1875 6.109375 C 2.570312 6.109375 2.007812 6.0625 1.5 5.96875 C 1 5.875 0.59375 5.75 0.28125 5.59375 L 0.859375 2.65625 L 1.09375 2.578125 C 1.3125 2.691406 1.582031 2.785156 1.90625 2.859375 C 2.226562 2.929688 2.554688 2.96875 2.890625 2.96875 C 3.472656 2.96875 3.957031 2.890625 4.34375 2.734375 C 4.738281 2.578125 5.070312 2.320312 5.34375 1.96875 C 5.613281 1.625 5.851562 1.140625 6.0625 0.515625 L 0.3125 -14.40625 L 4.09375 -14.40625 L 7.671875 -4.390625 L 7.984375 -4.390625 L 11.46875 -14.40625 L 15.15625 -14.40625 L 9.375 0.90625 C 8.914062 2.132812 8.40625 3.125 7.84375 3.875 C 7.289062 4.632812 6.640625 5.195312 5.890625 5.5625 C 5.140625 5.925781 4.238281 6.109375 3.1875 6.109375 Z M 3.1875 6.109375 "/></g></g><g transform="translate(126.708154, 297.104164)"><g><path d="M 8.375 0.28125 C 6.957031 0.28125 5.710938 -0.0078125 4.640625 -0.59375 C 3.578125 -1.175781 2.753906 -2.023438 2.171875 -3.140625 C 1.585938 -4.253906 1.296875 -5.601562 1.296875 -7.1875 C 1.296875 -8.769531 1.585938 -10.125 2.171875 -11.25 C 2.753906 -12.375 3.578125 -13.222656 4.640625 -13.796875 C 5.710938 -14.378906 6.957031 -14.671875 8.375 -14.671875 C 9.78125 -14.671875 11.015625 -14.378906 12.078125 -13.796875 C 13.148438 -13.222656 13.976562 -12.375 14.5625 -11.25 C 15.15625 -10.125 15.453125 -8.769531 15.453125 -7.1875 C 15.453125 -5.601562 15.15625 -4.253906 14.5625 -3.140625 C 13.976562 -2.023438 13.148438 -1.175781 12.078125 -0.59375 C 11.015625 -0.0078125 9.78125 0.28125 8.375 0.28125 Z M 8.375 -2.796875 C 10.601562 -2.796875 11.71875 -4.257812 11.71875 -7.1875 C 11.71875 -8.71875 11.429688 -9.835938 10.859375 -10.546875 C 10.285156 -11.253906 9.457031 -11.609375 8.375 -11.609375 C 6.132812 -11.609375 5.015625 -10.132812 5.015625 -7.1875 C 5.015625 -4.257812 6.132812 -2.796875 8.375 -2.796875 Z M 8.375 -2.796875 "/></g></g><g transform="translate(143.447089, 297.104164)"><g><path d="M 6.59375 0.28125 C 4.976562 0.28125 3.785156 -0.160156 3.015625 -1.046875 C 2.242188 -1.929688 1.859375 -3.203125 1.859375 -4.859375 L 1.859375 -14.40625 L 5.46875 -14.40625 L 5.46875 -5.3125 C 5.46875 -4.4375 5.65625 -3.796875 6.03125 -3.390625 C 6.414062 -2.984375 7.003906 -2.78125 7.796875 -2.78125 C 8.796875 -2.78125 9.570312 -3.109375 10.125 -3.765625 C 10.6875 -4.421875 10.96875 -5.453125 10.96875 -6.859375 L 10.96875 -14.40625 L 14.578125 -14.40625 L 14.578125 0 L 11.109375 0 L 11.109375 -2.109375 L 10.828125 -2.1875 C 10.367188 -1.351562 9.804688 -0.734375 9.140625 -0.328125 C 8.472656 0.078125 7.625 0.28125 6.59375 0.28125 Z M 6.59375 0.28125 "/></g></g><g transform="translate(160.107683, 297.104164)"><g><path d="M 2.078125 0 L 2.078125 -14.40625 L 5.59375 -14.40625 L 5.59375 -12.25 L 5.859375 -12.203125 C 6.210938 -13.003906 6.671875 -13.59375 7.234375 -13.96875 C 7.796875 -14.34375 8.484375 -14.53125 9.296875 -14.53125 C 10.109375 -14.53125 10.726562 -14.390625 11.15625 -14.109375 L 10.546875 -10.984375 L 10.265625 -10.9375 C 10.035156 -11.03125 9.8125 -11.097656 9.59375 -11.140625 C 9.375 -11.191406 9.109375 -11.21875 8.796875 -11.21875 C 7.785156 -11.21875 7.015625 -10.859375 6.484375 -10.140625 C 5.953125 -9.429688 5.6875 -8.296875 5.6875 -6.734375 L 5.6875 0 Z M 2.078125 0 "/></g></g><g transform="translate(171.401894, 297.104164)"><g/></g><g transform="translate(177.708373, 297.104164)"><g><path d="M 10.453125 0 L 6.6875 0 L 6.6875 -7.5 L 0.09375 -19.078125 L 4.140625 -19.078125 L 8.5 -11.578125 L 8.828125 -11.578125 L 13.09375 -19.078125 L 17.046875 -19.078125 L 10.453125 -7.5 Z M 10.453125 0 "/></g></g><g transform="translate(194.852072, 297.104164)"><g><path d="M 6.25 -8.375 L 6.25 -3.15625 L 15.359375 -3.15625 L 15.359375 0 L 2.484375 0 L 2.484375 -19.078125 L 15.15625 -19.078125 L 15.15625 -15.921875 L 6.25 -15.921875 L 6.25 -11.46875 L 14.03125 -11.46875 L 14.03125 -8.375 Z M 6.25 -8.375 "/></g></g><g transform="translate(211.264584, 297.104164)"><g><path d="M 8.453125 0.28125 C 7.128906 0.28125 5.953125 0.117188 4.921875 -0.203125 C 3.890625 -0.535156 3.03125 -0.96875 2.34375 -1.5 C 1.65625 -2.03125 1.128906 -2.613281 0.765625 -3.25 L 2.84375 -5.78125 L 3.171875 -5.78125 C 3.742188 -4.925781 4.472656 -4.242188 5.359375 -3.734375 C 6.242188 -3.234375 7.273438 -2.984375 8.453125 -2.984375 C 9.460938 -2.984375 10.222656 -3.195312 10.734375 -3.625 C 11.253906 -4.050781 11.515625 -4.640625 11.515625 -5.390625 C 11.515625 -5.835938 11.429688 -6.210938 11.265625 -6.515625 C 11.097656 -6.828125 10.820312 -7.09375 10.4375 -7.3125 C 10.0625 -7.53125 9.546875 -7.71875 8.890625 -7.875 L 6.4375 -8.4375 C 4.71875 -8.820312 3.4375 -9.46875 2.59375 -10.375 C 1.757812 -11.289062 1.34375 -12.472656 1.34375 -13.921875 C 1.34375 -15.003906 1.613281 -15.953125 2.15625 -16.765625 C 2.695312 -17.585938 3.484375 -18.222656 4.515625 -18.671875 C 5.546875 -19.128906 6.773438 -19.359375 8.203125 -19.359375 C 9.679688 -19.359375 10.941406 -19.164062 11.984375 -18.78125 C 13.035156 -18.394531 13.921875 -17.800781 14.640625 -17 L 12.78125 -14.4375 L 12.453125 -14.4375 C 11.910156 -15 11.289062 -15.421875 10.59375 -15.703125 C 9.90625 -15.992188 9.109375 -16.140625 8.203125 -16.140625 C 7.171875 -16.140625 6.382812 -15.953125 5.84375 -15.578125 C 5.300781 -15.210938 5.03125 -14.710938 5.03125 -14.078125 C 5.03125 -13.472656 5.21875 -12.988281 5.59375 -12.625 C 5.976562 -12.269531 6.640625 -11.992188 7.578125 -11.796875 L 10.078125 -11.28125 C 11.929688 -10.882812 13.273438 -10.21875 14.109375 -9.28125 C 14.941406 -8.351562 15.359375 -7.132812 15.359375 -5.625 C 15.359375 -4.4375 15.101562 -3.398438 14.59375 -2.515625 C 14.082031 -1.628906 13.304688 -0.941406 12.265625 -0.453125 C 11.234375 0.0351562 9.960938 0.28125 8.453125 0.28125 Z M 8.453125 0.28125 "/></g></g><g transform="translate(227.66404, 297.104164)"><g><path d="M 10.109375 0.28125 C 7.484375 0.28125 5.535156 -0.34375 4.265625 -1.59375 C 2.992188 -2.84375 2.359375 -4.695312 2.359375 -7.15625 L 2.359375 -19.078125 L 6.0625 -19.078125 L 6.0625 -7.171875 C 6.0625 -5.785156 6.394531 -4.742188 7.0625 -4.046875 C 7.726562 -3.347656 8.742188 -3 10.109375 -3 C 12.816406 -3 14.171875 -4.390625 14.171875 -7.171875 L 14.171875 -19.078125 L 17.875 -19.078125 L 17.875 -7.15625 C 17.875 -4.695312 17.238281 -2.84375 15.96875 -1.59375 C 14.695312 -0.34375 12.742188 0.28125 10.109375 0.28125 Z M 10.109375 0.28125 "/></g></g><g transform="translate(247.902223, 297.104164)"><g><path d="M 9.859375 -19.078125 C 11.222656 -19.078125 12.390625 -18.828125 13.359375 -18.328125 C 14.328125 -17.828125 15.054688 -17.125 15.546875 -16.21875 C 16.046875 -15.320312 16.296875 -14.28125 16.296875 -13.09375 C 16.296875 -11.894531 16.046875 -10.847656 15.546875 -9.953125 C 15.054688 -9.054688 14.328125 -8.359375 13.359375 -7.859375 C 12.390625 -7.359375 11.222656 -7.109375 9.859375 -7.109375 L 6.25 -7.109375 L 6.25 0 L 2.484375 0 L 2.484375 -19.078125 Z M 9.359375 -10.109375 C 11.453125 -10.109375 12.5 -11.101562 12.5 -13.09375 C 12.5 -15.09375 11.453125 -16.09375 9.359375 -16.09375 L 6.25 -16.09375 L 6.25 -10.109375 Z M 9.359375 -10.109375 "/></g></g><g transform="translate(265.34623, 297.104164)"><g/></g><g transform="translate(271.652708, 297.104164)"><g><path d="M 6.734375 0.28125 C 5.753906 0.28125 4.851562 0.164062 4.03125 -0.0625 C 3.21875 -0.300781 2.519531 -0.617188 1.9375 -1.015625 C 1.363281 -1.421875 0.9375 -1.890625 0.65625 -2.421875 L 2.65625 -4.578125 L 2.9375 -4.578125 C 3.414062 -3.929688 3.976562 -3.445312 4.625 -3.125 C 5.28125 -2.8125 5.992188 -2.65625 6.765625 -2.65625 C 7.460938 -2.65625 7.988281 -2.78125 8.34375 -3.03125 C 8.707031 -3.28125 8.890625 -3.640625 8.890625 -4.109375 C 8.890625 -4.472656 8.757812 -4.78125 8.5 -5.03125 C 8.25 -5.28125 7.835938 -5.472656 7.265625 -5.609375 L 5.359375 -6.0625 C 3.929688 -6.40625 2.882812 -6.925781 2.21875 -7.625 C 1.5625 -8.332031 1.234375 -9.222656 1.234375 -10.296875 C 1.234375 -11.191406 1.460938 -11.96875 1.921875 -12.625 C 2.378906 -13.289062 3.023438 -13.796875 3.859375 -14.140625 C 4.691406 -14.492188 5.660156 -14.671875 6.765625 -14.671875 C 8.054688 -14.671875 9.128906 -14.484375 9.984375 -14.109375 C 10.835938 -13.734375 11.503906 -13.234375 11.984375 -12.609375 L 10.046875 -10.515625 L 9.796875 -10.515625 C 9.390625 -10.972656 8.9375 -11.304688 8.4375 -11.515625 C 7.9375 -11.722656 7.378906 -11.828125 6.765625 -11.828125 C 5.335938 -11.828125 4.625 -11.382812 4.625 -10.5 C 4.625 -10.125 4.753906 -9.816406 5.015625 -9.578125 C 5.285156 -9.347656 5.753906 -9.15625 6.421875 -9 L 8.203125 -8.609375 C 9.660156 -8.296875 10.726562 -7.789062 11.40625 -7.09375 C 12.082031 -6.40625 12.421875 -5.484375 12.421875 -4.328125 C 12.421875 -3.410156 12.191406 -2.601562 11.734375 -1.90625 C 11.285156 -1.207031 10.632812 -0.664062 9.78125 -0.28125 C 8.925781 0.09375 7.910156 0.28125 6.734375 0.28125 Z M 6.734375 0.28125 "/></g></g><g transform="translate(284.931567, 297.104164)"><g><path d="M 8.390625 0.28125 C 7.003906 0.28125 5.773438 -0.0078125 4.703125 -0.59375 C 3.628906 -1.175781 2.789062 -2.023438 2.1875 -3.140625 C 1.59375 -4.265625 1.296875 -5.613281 1.296875 -7.1875 C 1.296875 -8.769531 1.59375 -10.125 2.1875 -11.25 C 2.789062 -12.375 3.625 -13.222656 4.6875 -13.796875 C 5.75 -14.378906 6.960938 -14.671875 8.328125 -14.671875 C 11.367188 -14.671875 13.3125 -13.570312 14.15625 -11.375 L 11.6875 -9.59375 L 11.40625 -9.59375 C 11.113281 -10.269531 10.726562 -10.773438 10.25 -11.109375 C 9.78125 -11.441406 9.140625 -11.609375 8.328125 -11.609375 C 7.285156 -11.609375 6.472656 -11.242188 5.890625 -10.515625 C 5.304688 -9.796875 5.015625 -8.6875 5.015625 -7.1875 C 5.015625 -5.707031 5.304688 -4.601562 5.890625 -3.875 C 6.484375 -3.15625 7.316406 -2.796875 8.390625 -2.796875 C 9.171875 -2.796875 9.832031 -3.003906 10.375 -3.421875 C 10.925781 -3.847656 11.316406 -4.457031 11.546875 -5.25 L 11.828125 -5.28125 L 14.40625 -3.859375 C 14.03125 -2.640625 13.347656 -1.644531 12.359375 -0.875 C 11.378906 -0.101562 10.054688 0.28125 8.390625 0.28125 Z M 8.390625 0.28125 "/></g></g><g transform="translate(299.777253, 297.104164)"><g><path d="M 8.375 0.28125 C 6.957031 0.28125 5.710938 -0.0078125 4.640625 -0.59375 C 3.578125 -1.175781 2.753906 -2.023438 2.171875 -3.140625 C 1.585938 -4.253906 1.296875 -5.601562 1.296875 -7.1875 C 1.296875 -8.769531 1.585938 -10.125 2.171875 -11.25 C 2.753906 -12.375 3.578125 -13.222656 4.640625 -13.796875 C 5.710938 -14.378906 6.957031 -14.671875 8.375 -14.671875 C 9.78125 -14.671875 11.015625 -14.378906 12.078125 -13.796875 C 13.148438 -13.222656 13.976562 -12.375 14.5625 -11.25 C 15.15625 -10.125 15.453125 -8.769531 15.453125 -7.1875 C 15.453125 -5.601562 15.15625 -4.253906 14.5625 -3.140625 C 13.976562 -2.023438 13.148438 -1.175781 12.078125 -0.59375 C 11.015625 -0.0078125 9.78125 0.28125 8.375 0.28125 Z M 8.375 -2.796875 C 10.601562 -2.796875 11.71875 -4.257812 11.71875 -7.1875 C 11.71875 -8.71875 11.429688 -9.835938 10.859375 -10.546875 C 10.285156 -11.253906 9.457031 -11.609375 8.375 -11.609375 C 6.132812 -11.609375 5.015625 -10.132812 5.015625 -7.1875 C 5.015625 -4.257812 6.132812 -2.796875 8.375 -2.796875 Z M 8.375 -2.796875 "/></g></g><g transform="translate(316.516188, 297.104164)"><g><path d="M 2.078125 0 L 2.078125 -14.40625 L 5.59375 -14.40625 L 5.59375 -12.25 L 5.859375 -12.203125 C 6.210938 -13.003906 6.671875 -13.59375 7.234375 -13.96875 C 7.796875 -14.34375 8.484375 -14.53125 9.296875 -14.53125 C 10.109375 -14.53125 10.726562 -14.390625 11.15625 -14.109375 L 10.546875 -10.984375 L 10.265625 -10.9375 C 10.035156 -11.03125 9.8125 -11.097656 9.59375 -11.140625 C 9.375 -11.191406 9.109375 -11.21875 8.796875 -11.21875 C 7.785156 -11.21875 7.015625 -10.859375 6.484375 -10.140625 C 5.953125 -9.429688 5.6875 -8.296875 5.6875 -6.734375 L 5.6875 0 Z M 2.078125 0 "/></g></g><g transform="translate(327.810399, 297.104164)"><g><path d="M 14.234375 -6.390625 L 4.96875 -6.390625 C 5.070312 -5.128906 5.425781 -4.210938 6.03125 -3.640625 C 6.644531 -3.078125 7.476562 -2.796875 8.53125 -2.796875 C 9.363281 -2.796875 10.035156 -2.945312 10.546875 -3.25 C 11.054688 -3.5625 11.46875 -4.03125 11.78125 -4.65625 L 12.0625 -4.65625 L 14.46875 -3.125 C 14 -2.113281 13.285156 -1.289062 12.328125 -0.65625 C 11.378906 -0.03125 10.113281 0.28125 8.53125 0.28125 C 7.050781 0.28125 5.765625 0 4.671875 -0.5625 C 3.585938 -1.132812 2.753906 -1.976562 2.171875 -3.09375 C 1.585938 -4.21875 1.296875 -5.582031 1.296875 -7.1875 C 1.296875 -8.820312 1.601562 -10.203125 2.21875 -11.328125 C 2.832031 -12.453125 3.664062 -13.289062 4.71875 -13.84375 C 5.78125 -14.394531 6.96875 -14.671875 8.28125 -14.671875 C 10.3125 -14.671875 11.867188 -14.128906 12.953125 -13.046875 C 14.035156 -11.972656 14.578125 -10.390625 14.578125 -8.296875 C 14.578125 -7.546875 14.550781 -6.960938 14.5 -6.546875 Z M 11.125 -8.71875 C 11.082031 -9.8125 10.820312 -10.609375 10.34375 -11.109375 C 9.875 -11.609375 9.1875 -11.859375 8.28125 -11.859375 C 6.445312 -11.859375 5.367188 -10.8125 5.046875 -8.71875 Z M 11.125 -8.71875 "/></g></g><g transform="translate(343.465613, 297.104164)"><g><path d="M 4.4375 -7.015625 C 4.4375 -7.628906 4.488281 -8.140625 4.59375 -8.546875 C 4.695312 -8.960938 4.878906 -9.34375 5.140625 -9.6875 C 5.398438 -10.03125 5.773438 -10.398438 6.265625 -10.796875 L 7.40625 -11.71875 C 7.957031 -12.175781 8.347656 -12.59375 8.578125 -12.96875 C 8.804688 -13.34375 8.921875 -13.765625 8.921875 -14.234375 C 8.921875 -14.816406 8.710938 -15.28125 8.296875 -15.625 C 7.890625 -15.96875 7.289062 -16.140625 6.5 -16.140625 C 5.707031 -16.140625 5.019531 -15.945312 4.4375 -15.5625 C 3.863281 -15.1875 3.351562 -14.644531 2.90625 -13.9375 L 2.609375 -13.890625 L 0.46875 -16.21875 C 1.1875 -17.25 2.054688 -18.03125 3.078125 -18.5625 C 4.097656 -19.09375 5.3125 -19.359375 6.71875 -19.359375 C 8.050781 -19.359375 9.164062 -19.15625 10.0625 -18.75 C 10.96875 -18.34375 11.640625 -17.78125 12.078125 -17.0625 C 12.515625 -16.351562 12.734375 -15.546875 12.734375 -14.640625 C 12.734375 -13.628906 12.523438 -12.765625 12.109375 -12.046875 C 11.691406 -11.335938 11.054688 -10.640625 10.203125 -9.953125 L 8.9375 -8.953125 C 8.457031 -8.578125 8.132812 -8.238281 7.96875 -7.9375 C 7.8125 -7.644531 7.734375 -7.25 7.734375 -6.75 L 7.734375 -6.328125 L 4.4375 -6.328125 Z M 6.09375 0.125 C 5.644531 0.125 5.25 0.0351562 4.90625 -0.140625 C 4.5625 -0.328125 4.296875 -0.582031 4.109375 -0.90625 C 3.921875 -1.226562 3.828125 -1.585938 3.828125 -1.984375 C 3.828125 -2.390625 3.921875 -2.753906 4.109375 -3.078125 C 4.296875 -3.410156 4.5625 -3.664062 4.90625 -3.84375 C 5.25 -4.03125 5.644531 -4.125 6.09375 -4.125 C 6.769531 -4.125 7.316406 -3.921875 7.734375 -3.515625 C 8.148438 -3.117188 8.359375 -2.613281 8.359375 -2 C 8.359375 -1.382812 8.148438 -0.875 7.734375 -0.46875 C 7.316406 -0.0703125 6.769531 0.125 6.09375 0.125 Z M 6.09375 0.125 "/></g></g></g></svg>